<svg id="eBf1gnVkQaI1" xmlns="http://www.w3.org/2000/svg" xmlns:xlink="http://www.w3.org/1999/xlink" viewBox="0 0 200 180" shape-rendering="geometricPrecision" text-rendering="geometricPrecision" project-id="6bc58b25236e40f5a8ed4b401e6bf72a" export-id="4585c9dd87654b44ad61990dd7ab508c" cached="false">
<style><![CDATA[
#eBf1gnVkQaI4 {animation-name: eBf1gnVkQaI4_f_p, eBf1gnVkQaI4_s_p;animation-duration: 6000ms;animation-fill-mode: forwards;animation-timing-function: linear;animation-direction: normal;animation-iteration-count: infinite;}@keyframes eBf1gnVkQaI4_f_p { 0% {fill: rgba(210,219,237,0)} 58.333333% {fill: rgba(210,219,237,0)} 70% {fill: rgba(210,219,237,0)} 100% {fill: rgba(210,219,237,0)}}@keyframes eBf1gnVkQaI4_s_p { 0% {stroke: #00d1a1} 70% {stroke: #00d1a1} 83.333333% {stroke: #d10000} 100% {stroke: #d10000}} #eBf1gnVkQaI12 {animation: eBf1gnVkQaI12_f_p 6000ms linear infinite normal forwards}@keyframes eBf1gnVkQaI12_f_p { 0% {fill: #00d1a1} 38.333333% {fill: #00d1a1} 51.666667% {fill: #d10000} 100% {fill: #d10000}} #eBf1gnVkQaI18 {animation: eBf1gnVkQaI18_f_p 6000ms linear infinite normal forwards}@keyframes eBf1gnVkQaI18_f_p { 0% {fill: #00d1a1} 50% {fill: #00d1a1} 61.666667% {fill: #d10000} 100% {fill: #d10000}} #eBf1gnVkQaI24 {animation: eBf1gnVkQaI24_f_p 6000ms linear infinite normal forwards}@keyframes eBf1gnVkQaI24_f_p { 0% {fill: #00d1a1} 58.333333% {fill: #00d1a1} 70% {fill: #d10000} 100% {fill: #d10000}} #eBf1gnVkQaI31 {animation: eBf1gnVkQaI31_f_p 6000ms linear infinite normal forwards}@keyframes eBf1gnVkQaI31_f_p { 0% {fill: #00d1a6} 58.333333% {fill: #00d1a6} 70% {fill: #d10000} 100% {fill: #d10000}} #eBf1gnVkQaI39 {animation: eBf1gnVkQaI39_f_p 6000ms linear infinite normal forwards}@keyframes eBf1gnVkQaI39_f_p { 0% {fill: #00d1a1} 50% {fill: #00d1a1} 61.666667% {fill: #d10000} 100% {fill: #d10000}} #eBf1gnVkQaI46 {animation: eBf1gnVkQaI46_f_p 6000ms linear infinite normal forwards}@keyframes eBf1gnVkQaI46_f_p { 0% {fill: #00d1a1} 50% {fill: #00d1a1} 61.666667% {fill: #d10000} 100% {fill: #d10000}} #eBf1gnVkQaI52 {animation: eBf1gnVkQaI52_f_p 6000ms linear infinite normal forwards}@keyframes eBf1gnVkQaI52_f_p { 0% {fill: #00d1a1} 58.333333% {fill: #00d1a1} 70% {fill: #d10000} 100% {fill: #d10000}} #eBf1gnVkQaI59 {animation: eBf1gnVkQaI59_f_p 6000ms linear infinite normal forwards}@keyframes eBf1gnVkQaI59_f_p { 0% {fill: #00d1a1} 58.333333% {fill: #00d1a1} 70% {fill: #d10000} 100% {fill: #d10000}} #eBf1gnVkQaI67 {animation: eBf1gnVkQaI67_f_p 6000ms linear infinite normal forwards}@keyframes eBf1gnVkQaI67_f_p { 0% {fill: #00d1a1} 58.333333% {fill: #00d1a1} 70% {fill: #d10000} 100% {fill: #d10000}}
]]></style>
<g transform="translate(-52.140129-53.246711)"><g transform="translate(0 0.000001)"><path id="eBf1gnVkQaI4" d="M0,0h120.212541v127.675554l-.000003,61.925082-79.485881-.000001h-40.726656L0,73.628667L0,0Z" transform="matrix(1.335699 0 0 0.686943 71.856238 78.124296)" fill="rgba(210,219,237,0)" stroke="#00d1a1" stroke-width="4" stroke-linecap="round" stroke-linejoin="round"/></g><g transform="translate(.000001 0.000001)"><g transform="matrix(.482246 0 0 0.460411 184.944238 170.083954)"><g><g><g><g><rect width="80" height="70" rx="0" ry="0" fill="none"/><path id="eBf1gnVkQaI12" d="M21.41,24.38v-9.53h10.14v9.53h-10.14Zm13.52,0v-9.53h10.14v9.53h-10.14Zm13.52,0v-9.53h10.14v9.53h-10.14Zm13.54,0v-9.53h10.12v9.53h-10.12Zm0,12.73v-9.55h10.12v9.55h-10.12Zm-13.54,0v-9.55h10.14v9.55h-10.14Zm-13.52,0v-9.55h10.14v9.55h-10.14Zm-13.52,0v-9.55h10.14v9.55h-10.14Zm-13.52,0v-9.55h10.14v9.55h-10.14Zm0,25.45v-9.54h10.14v9.54h-10.14Zm13.52,0v-9.54h10.14v9.54h-10.14Zm13.52,0v-9.54h10.14v9.54h-10.14Zm13.52,0v-9.54h10.14v9.54h-10.14ZM61.99,49.83v-9.54h10.12v9.54h-10.12Zm-13.54,0v-9.54h10.14v9.54h-10.14Zm-13.52,0v-9.54h10.14v9.54h-10.14Zm-13.52,0v-9.54h10.14v9.54h-10.14Zm-13.52,0v-9.54h10.14v9.54h-10.14ZM3.38,66.82h73.24v-56.21h-73.24v56.21ZM0,70L0,4.31C0,1.68,2.28,0,4.43,0h71.11C78.12,0,80,2.08,80,4.16L80,70h-80Z" fill="#00d1a1"/></g></g></g></g></g><g transform="matrix(.380572 0 0 0.364826 136.52518 165.830124)"><g><g><g><g><path id="eBf1gnVkQaI18" d="M12.12,25.63v-11.52h6.59v11.52h-6.59Zm11.14,0v-11.52h46.1v11.52h-46.1ZM12.12,45.24v-11.52h6.59v11.52h-6.59Zm11.14,0v-11.52h46.1v11.52h-46.1ZM12.12,64.85v-11.52h6.59v11.52h-6.59Zm11.14,0v-11.52h46.1v11.52h-46.1ZM0,100L0,0h81v100h-81Zm7.33-9.07h66.66v-82.98h-66.66v82.98Zm4.79-6.47v-11.52h6.59v11.52h-6.59Zm11.14,0v-11.52h46.1v11.52h-46.1Z" fill="#00d1a1"/></g></g></g></g></g><g transform="matrix(.716985 0 0 0.666767 76.9466 174.297459)"><g><g><g><g><path id="eBf1gnVkQaI24" d="M0,0h60v40h-60L0,0Z" fill="#00d1a1" stroke="#000" stroke-miterlimit="10"/><path d="M0,0L30,20L60,0" fill="none" stroke="rgba(0,0,0,0.68)" stroke-miterlimit="10"/></g></g></g></g></g><g transform="matrix(.515821 0 0 0.462987 82.4286 128.203108)"><g><g><g><g><path id="eBf1gnVkQaI31" d="M0,0h60v60h-60L0,0Z" fill="#00d1a6"/><path d="M37.96,33.71h-13.35l-3.23-10.3h19.81l-3.23,10.3Zm1.51,6.85c0,.72-.59,1.31-1.31,1.31s-1.31-.59-1.31-1.31.59-1.31,1.31-1.31s1.31.59,1.31,1.31Zm-16.06,0c0-.72.59-1.31,1.31-1.31s1.31.59,1.31,1.31-.59,1.31-1.31,1.31-1.31-.59-1.31-1.31ZM21.25,21.23l-.64-2.51c-.2-.7-.8-1.23-1.48-1.32l-3.23-.93-.6,2.1l3.26.94.66,2.6c-.22.38-.28.83-.15,1.26l3.57,11.34c.22.71.89,1.18,1.67,1.18h1.04l-.57,1.18c-.02,0-.04,0-.06,0-1.93,0-3.49,1.56-3.49,3.49c0,1.92,1.56,3.49,3.49,3.49c1.54,0,2.84-1.01,3.3-2.4h6.84c.46,1.39,1.76,2.4,3.3,2.4c1.92,0,3.49-1.57,3.49-3.49c0-1.93-1.57-3.49-3.49-3.49-1.54,0-2.84,1.01-3.3,2.4h-6.84c-.22-.67-.63-1.24-1.17-1.66l.93-1.92h10.48c.78,0,1.45-.47,1.68-1.18L43.5,23.37c.15-.49.06-1.01-.24-1.43-.33-.45-.86-.71-1.43-.71h-20.58Zm25.9,24.68c0,.68-.56,1.24-1.24,1.24h-31.82c-.68,0-1.24-.56-1.24-1.24v-31.8c0-.68.56-1.24,1.24-1.24h31.82c.68,0,1.24.56,1.24,1.24v31.8ZM54,19.57v-2.18h-4.67v-3.28c0-1.89-1.54-3.42-3.42-3.42h-3.3v-4.69h-2.18v4.69h-3.58v-4.69h-2.18v4.69h-3.58v-4.69h-2.18v4.69h-3.58v-4.69h-2.18v4.69h-3.58v-4.69h-2.18v4.69h-3.3c-1.88,0-3.42,1.53-3.42,3.42v3.28h-4.67v2.18h4.67v3.58h-4.67v2.18h4.67v3.58h-4.67v2.18h4.67v3.58h-4.67v2.18h4.67v3.58h-4.67v2.18h4.67v3.3c0,1.89,1.54,3.42,3.42,3.42h3.3v4.67h2.18v-4.67h3.58v4.67h2.18v-4.67h3.58v4.67h2.18v-4.67h3.58v4.67h2.18v-4.67h3.58v4.67h2.18v-4.67h3.3c1.88,0,3.42-1.53,3.42-3.42v-3.3h4.67v-2.18h-4.67v-3.58h4.67v-2.18h-4.67v-3.58h4.67v-2.18h-4.67v-3.58h4.67v-2.18h-4.67v-3.58h4.67Z"/></g></g></g></g></g><g transform="matrix(.531688 0 0 0.422689 131.169261 125.607846)"><g><g><g><g><rect width="78" height="78" rx="0" ry="0" fill="none"/><path id="eBf1gnVkQaI39" d="M19.13,62.09v-2.64h2.64v2.64h-2.64Zm-3.54,3.54h9.72v-9.72h-9.72v9.72ZM31.5,62.09v-2.64h2.64v2.64h-2.64Zm-3.54,3.54h9.72v-9.72h-9.72v9.72Zm15.9-3.54v-2.64h2.64v2.64h-2.64Zm-3.54,3.54h9.72v-9.72h-9.72v9.72Zm15.91-3.54v-2.64h2.64v2.64h-2.64Zm-3.54,3.54h9.72v-9.72h-9.72v9.72ZM19.13,49.73v-2.64h2.64v2.64h-2.64Zm-3.54,3.54h9.72v-9.73h-9.72v9.73ZM31.5,49.73v-2.64h2.64v2.64h-2.64Zm-3.54,3.54h9.72v-9.73h-9.72v9.73Zm15.9-3.54v-2.64h2.64v2.64h-2.64Zm-3.54,3.54h9.72v-9.73h-9.72v9.73ZM19.13,37.36v-2.64h2.64v2.64h-2.64Zm-3.54,3.55h9.72v-9.73h-9.72v9.73ZM31.5,37.36v-2.64h2.64v2.64h-2.64Zm-3.54,3.55h9.72v-9.73h-9.72v9.73ZM12.95,68.28v-39.74h52.1v39.74h-52.1ZM9.41,71.82h59.18v-46.82h-59.18v46.82ZM3.68,24.26L39,4.08L74.32,24.26v50.2h-70.64v-50.2ZM39,0L0.13,22.21v55.79h77.74v-55.79L39,0Z" fill="#00d1a1"/></g></g></g></g></g><g transform="matrix(.610207 0 0 0.655845 189.589111 127.506432)"><g><g><g><g><rect width="48" height="48" rx="0" ry="0" fill="none"/><path id="eBf1gnVkQaI46" d="M24.2,27.98c-3.03,0-4.16-2.43-4.16-3.96c0-2.73,2.18-4.08,4.15-4.08c1.62,0,3.86,1.4,3.86,4.08c0,1.75-1.47,3.96-3.85,3.96Zm0,6.78c5.71,0,10.51-4.83,10.51-10.74c0-6.84-5.64-10.85-10.51-10.85-6.1,0-10.93,4.76-10.93,10.85c0,6.03,4.75,10.74,10.93,10.74ZM2.1,34.38L0,26.56L6.37,24c-.02-1.24.18-2.88.53-4.28l-5.56-4L5.25,8.8l6.15,2.64c1.06-1.06,2.21-2.01,3.52-2.79l-.97-6.62L21.75,0l2.4,6.24c1.48,0,2.94.12,4.35.53l3.9-5.36l6.9,3.93-2.63,6.01c1.06,1.15,2.01,2.35,2.78,3.62L45.9,14L48,21.74l-6.08,2.41c-.01,1.52-.19,3-.6,4.45l5.18,3.83-3.9,6.92-6-2.63c-1.04,1.15-2.21,1.92-3.38,2.63l1.05,6.54L26.47,48L24,41.84c-1.5.02-3.05-.16-4.43-.53l-3.9,5.42-6.9-3.92l2.63-6.18c-.97-1-1.86-2.09-2.62-3.37L2.1,34.38Z" fill="#00d1a1"/></g></g></g></g></g><g transform="matrix(.332444 0 0 0.320406 184.287438 90.22348)"><g><g><g><g><path id="eBf1gnVkQaI52" d="M2,70c-1.1,0-2-.9-2-2L0,2c0-1.1.9-2,2-2h116c1.1,0,2,.9,2,2v66c0,1.1-.9,2-2,2L2,70Z" fill="#00d1a1"/><path d="M40.69,64.73c.28-3.23.67-6.46,1.17-9.67.2-2.33.74-4.61,1.59-6.78.47-.99,1.19-1.84,2.08-2.46c1.51-.93,3.14-1.65,4.84-2.13.73-.23,1.53,0,2.03.58c2,2.11,4.85,3.21,7.75,3c2.81.14,5.55-.96,7.49-3c.63-.61,1.54-.83,2.38-.58c1.6.57,3.14,1.32,4.59,2.22c1.31,1.02,2.23,2.45,2.61,4.07.58,2.3.98,4.65,1.21,7.01l.88,7.74h-38.62ZM60.24,41.85c-5.28.12-9.65-4.58-9.77-10.5-.09-2.95.91-5.8,2.76-7.9c1.85-2.09,4.38-3.24,7.01-3.18c2.55.08,4.95,1.3,6.7,3.38c1.74,2.08,2.67,4.85,2.59,7.7-.11,5.71-4.19,10.33-9.29,10.5M1,16v52c0,.55.45,1,1,1h116c.55,0,1-.45,1-1v-52L1,16Z" fill="#fff" fill-opacity="0.5"/></g></g></g></g></g><g transform="matrix(.522773 0 0 0.504222 136.255155 86.31103)"><g><g><g><g><path id="eBf1gnVkQaI59" d="M0,0h60v60h-60L0,0Z" fill="#00d1a1"/><path d="M14.87,32.31c-1.28,0-2.32-1.03-2.32-2.31s1.04-2.31,2.32-2.31c1.27,0,2.31,1.03,2.31,2.31s-1.04,2.31-2.31,2.31Zm0-6.8c-2.48,0-4.5,2.01-4.5,4.49s2.02,4.49,4.5,4.49c2.47,0,4.49-2.01,4.49-4.49s-2.02-4.49-4.49-4.49Zm34.5,6.8h-20.45c-.48,0-.9.31-1.04.76-1.33,4.2-5.19,7.02-9.61,7.02C12.7,40.09,8.18,35.57,8.18,30c0-5.56,4.52-10.09,10.09-10.09c4.42,0,8.28,2.82,9.61,7.02.14.45.56.76,1.04.76h3.45c.29,0,.56-.12.77-.32l2.14-2.15l2.15,2.15c.21.2.48.32.77.32h1.95c.28,0,.56-.12.76-.32l2.15-2.15l2.15,2.15c.2.2.48.32.77.32h2.51l2.77,2.42-1.89,2.2Zm4.13-3.13l-3.89-3.4c-.2-.18-.45-.27-.71-.27h-2.47l-2.6-2.6c-.42-.42-1.11-.42-1.54,0l-2.6,2.6h-1.04l-2.6-2.6c-.42-.42-1.11-.42-1.54,0l-2.59,2.6h-2.23c-1.83-4.69-6.32-7.78-11.42-7.78C11.5,17.73,6,23.23,6,30s5.5,12.27,12.27,12.27c5.1,0,9.59-3.09,11.42-7.78h20.18c.32,0,.62-.14.82-.38l2.92-3.4c.39-.45.34-1.14-.11-1.53Z" fill="#232f3e"/></g></g></g></g></g><g transform="matrix(.807045 0 0 0.714934 80.551763 83.56434)"><g><g><g><g><rect width="43" height="50" rx="0" ry="0" fill="none"/><path id="eBf1gnVkQaI67" d="M39.24,37.56h-9.11v1.22h9.11v-1.22Zm0,2.43h-9.11v1.22h9.11v-1.22Zm0,2.44h-9.11v1.22h9.11v-1.22Zm0,2.44h-9.11v1.22h9.11v-1.22ZM27.09,37.56h-8.51v8.53h8.51v-8.53ZM15.06,31.09v18.9h27.94v-18.9h-27.94ZM41.67,48.52h-25.51v-13.41h25.52v13.41h-.01ZM21.87,0L2.43,0C1.1,0,0,1.09,0,2.44L0,50h13.36v-4.87h-9.72v-2.45h9.72v-2.44h-9.72v-2.44h9.72v-7.32-1.22h1.22h7.29c.73,0,1.22,0,2.43,0v-26.82C24.3,1.09,23.2,0,21.87,0ZM20.65,9.76h-17.01v-2.44h17.01c0,0,0,2.44,0,2.44Z" fill="#00d1a1"/></g></g></g></g></g></g></g></svg>
