<?xml version="1.0" encoding="UTF-8"?>
<!-- Do not edit this file with editors other than draw.io -->
<!DOCTYPE svg PUBLIC "-//W3C//DTD SVG 1.1//EN" "http://www.w3.org/Graphics/SVG/1.1/DTD/svg11.dtd">
<svg xmlns="http://www.w3.org/2000/svg" xmlns:xlink="http://www.w3.org/1999/xlink" version="1.1" width="61px" height="61px" viewBox="-0.5 -0.5 61 61" content="&lt;mxfile host=&quot;Electron&quot; agent=&quot;Mozilla/5.0 (Windows NT 10.0; Win64; x64) AppleWebKit/537.36 (KHTML, like Gecko) draw.io/24.7.5 Chrome/126.0.6478.183 Electron/31.3.0 Safari/537.36&quot; version=&quot;24.7.5&quot;&gt;&#10;  &lt;diagram name=&quot;Page-1&quot; id=&quot;tKu5dvDkovTYUAbwynBG&quot;&gt;&#10;    &lt;mxGraphModel dx=&quot;2074&quot; dy=&quot;1204&quot; grid=&quot;1&quot; gridSize=&quot;10&quot; guides=&quot;1&quot; tooltips=&quot;1&quot; connect=&quot;1&quot; arrows=&quot;1&quot; fold=&quot;1&quot; page=&quot;1&quot; pageScale=&quot;1&quot; pageWidth=&quot;850&quot; pageHeight=&quot;1100&quot; math=&quot;0&quot; shadow=&quot;0&quot;&gt;&#10;      &lt;root&gt;&#10;        &lt;mxCell id=&quot;0&quot; /&gt;&#10;        &lt;mxCell id=&quot;1&quot; parent=&quot;0&quot; /&gt;&#10;        &lt;mxCell id=&quot;AkPXjze72pjPqGDbKw_e-3&quot; value=&quot;&quot; style=&quot;sketch=0;outlineConnect=0;fontColor=#232F3E;gradientColor=none;strokeColor=#232F3E;fillColor=#00D1A1;dashed=0;verticalLabelPosition=bottom;verticalAlign=top;align=center;html=1;fontSize=12;fontStyle=0;aspect=fixed;shape=mxgraph.aws4.resourceIcon;resIcon=mxgraph.aws4.addon;&quot; vertex=&quot;1&quot; parent=&quot;1&quot;&gt;&#10;          &lt;mxGeometry x=&quot;30&quot; y=&quot;20&quot; width=&quot;60&quot; height=&quot;60&quot; as=&quot;geometry&quot; /&gt;&#10;        &lt;/mxCell&gt;&#10;      &lt;/root&gt;&#10;    &lt;/mxGraphModel&gt;&#10;  &lt;/diagram&gt;&#10;&lt;/mxfile&gt;&#10;"><defs/><g><g data-cell-id="0"><g data-cell-id="1"><g data-cell-id="AkPXjze72pjPqGDbKw_e-3"><g><path d="M 0 0 L 60 0 L 60 60 L 0 60 Z" fill="#00d1a1" stroke="none" pointer-events="all"/><path d="M 14.87 32.31 C 13.59 32.31 12.55 31.28 12.55 30 C 12.55 28.72 13.59 27.69 14.87 27.69 C 16.14 27.69 17.18 28.72 17.18 30 C 17.18 31.28 16.14 32.31 14.87 32.31 Z M 14.87 25.51 C 12.39 25.51 10.37 27.52 10.37 30 C 10.37 32.48 12.39 34.49 14.87 34.49 C 17.34 34.49 19.36 32.48 19.36 30 C 19.36 27.52 17.34 25.51 14.87 25.51 Z M 49.37 32.31 L 28.92 32.31 C 28.44 32.31 28.02 32.62 27.88 33.07 C 26.55 37.27 22.69 40.09 18.27 40.09 C 12.7 40.09 8.18 35.57 8.18 30 C 8.18 24.44 12.7 19.91 18.27 19.91 C 22.69 19.91 26.55 22.73 27.88 26.93 C 28.02 27.38 28.44 27.69 28.92 27.69 L 32.37 27.69 C 32.66 27.69 32.93 27.57 33.14 27.37 L 35.28 25.22 L 37.43 27.37 C 37.64 27.57 37.91 27.69 38.2 27.69 L 40.15 27.69 C 40.43 27.69 40.71 27.57 40.91 27.37 L 43.06 25.22 L 45.21 27.37 C 45.41 27.57 45.69 27.69 45.98 27.69 L 48.49 27.69 L 51.26 30.11 Z M 53.5 29.18 L 49.61 25.78 C 49.41 25.6 49.16 25.51 48.9 25.51 L 46.43 25.51 L 43.83 22.91 C 43.41 22.49 42.72 22.49 42.29 22.91 L 39.69 25.51 L 38.65 25.51 L 36.05 22.91 C 35.63 22.49 34.94 22.49 34.51 22.91 L 31.92 25.51 L 29.69 25.51 C 27.86 20.82 23.37 17.73 18.27 17.73 C 11.5 17.73 6 23.23 6 30 C 6 36.77 11.5 42.27 18.27 42.27 C 23.37 42.27 27.86 39.18 29.69 34.49 L 49.87 34.49 C 50.19 34.49 50.49 34.35 50.69 34.11 L 53.61 30.71 C 54 30.26 53.95 29.57 53.5 29.18 Z" fill="#232f3e" stroke="none" pointer-events="all"/></g></g></g></g></g></svg>