<?xml version="1.0" encoding="UTF-8"?>
<!-- Do not edit this file with editors other than draw.io -->
<!DOCTYPE svg PUBLIC "-//W3C//DTD SVG 1.1//EN" "http://www.w3.org/Graphics/SVG/1.1/DTD/svg11.dtd">
<svg xmlns="http://www.w3.org/2000/svg" xmlns:xlink="http://www.w3.org/1999/xlink" version="1.1" width="80px" height="70px" viewBox="-0.5 -0.5 80 70" content="&lt;mxfile host=&quot;Electron&quot; agent=&quot;Mozilla/5.0 (Windows NT 10.0; Win64; x64) AppleWebKit/537.36 (KHTML, like Gecko) draw.io/24.7.5 Chrome/126.0.6478.183 Electron/31.3.0 Safari/537.36&quot; version=&quot;24.7.5&quot;&gt;&#10;  &lt;diagram name=&quot;Page-1&quot; id=&quot;tKu5dvDkovTYUAbwynBG&quot;&gt;&#10;    &lt;mxGraphModel dx=&quot;2074&quot; dy=&quot;1204&quot; grid=&quot;1&quot; gridSize=&quot;10&quot; guides=&quot;1&quot; tooltips=&quot;1&quot; connect=&quot;1&quot; arrows=&quot;1&quot; fold=&quot;1&quot; page=&quot;1&quot; pageScale=&quot;1&quot; pageWidth=&quot;850&quot; pageHeight=&quot;1100&quot; math=&quot;0&quot; shadow=&quot;0&quot;&gt;&#10;      &lt;root&gt;&#10;        &lt;mxCell id=&quot;0&quot; /&gt;&#10;        &lt;mxCell id=&quot;1&quot; parent=&quot;0&quot; /&gt;&#10;        &lt;mxCell id=&quot;uA-r8rwqpVJEQonIAWfs-2&quot; value=&quot;&quot; style=&quot;sketch=0;pointerEvents=1;shadow=0;dashed=0;html=1;strokeColor=none;fillColor=#00D1A1;labelPosition=center;verticalLabelPosition=bottom;verticalAlign=top;outlineConnect=0;align=center;shape=mxgraph.office.concepts.calendar;&quot; vertex=&quot;1&quot; parent=&quot;1&quot;&gt;&#10;          &lt;mxGeometry x=&quot;60&quot; y=&quot;60&quot; width=&quot;80&quot; height=&quot;70&quot; as=&quot;geometry&quot; /&gt;&#10;        &lt;/mxCell&gt;&#10;      &lt;/root&gt;&#10;    &lt;/mxGraphModel&gt;&#10;  &lt;/diagram&gt;&#10;&lt;/mxfile&gt;&#10;"><defs/><g><g data-cell-id="0"><g data-cell-id="1"><g data-cell-id="uA-r8rwqpVJEQonIAWfs-2"><g><rect x="0" y="0" width="80" height="70" fill="none" stroke="none" pointer-events="all"/><path d="M 21.41 24.38 L 21.41 14.85 L 31.55 14.85 L 31.55 24.38 Z M 34.93 24.38 L 34.93 14.85 L 45.07 14.85 L 45.07 24.38 Z M 48.45 24.38 L 48.45 14.85 L 58.59 14.85 L 58.59 24.38 Z M 61.99 24.38 L 61.99 14.85 L 72.11 14.85 L 72.11 24.38 Z M 61.99 37.11 L 61.99 27.56 L 72.11 27.56 L 72.11 37.11 Z M 48.45 37.11 L 48.45 27.56 L 58.59 27.56 L 58.59 37.11 Z M 34.93 37.11 L 34.93 27.56 L 45.07 27.56 L 45.07 37.11 Z M 21.41 37.11 L 21.41 27.56 L 31.55 27.56 L 31.55 37.11 Z M 7.89 37.11 L 7.89 27.56 L 18.03 27.56 L 18.03 37.11 Z M 7.89 62.56 L 7.89 53.02 L 18.03 53.02 L 18.03 62.56 Z M 21.41 62.56 L 21.41 53.02 L 31.55 53.02 L 31.55 62.56 Z M 34.93 62.56 L 34.93 53.02 L 45.07 53.02 L 45.07 62.56 Z M 48.45 62.56 L 48.45 53.02 L 58.59 53.02 L 58.59 62.56 Z M 61.99 49.83 L 61.99 40.29 L 72.11 40.29 L 72.11 49.83 Z M 48.45 49.83 L 48.45 40.29 L 58.59 40.29 L 58.59 49.83 Z M 34.93 49.83 L 34.93 40.29 L 45.07 40.29 L 45.07 49.83 Z M 21.41 49.83 L 21.41 40.29 L 31.55 40.29 L 31.55 49.83 Z M 7.89 49.83 L 7.89 40.29 L 18.03 40.29 L 18.03 49.83 Z M 3.38 66.82 L 76.62 66.82 L 76.62 10.61 L 3.38 10.61 Z M 0 70 L 0 4.31 C 0 1.68 2.28 0 4.43 0 L 75.54 0 C 78.12 0 80 2.08 80 4.16 L 80 70 Z" fill="#00d1a1" stroke="none" pointer-events="all"/></g></g></g></g></g></svg>