<?xml version="1.0" encoding="UTF-8"?>
<!-- Do not edit this file with editors other than draw.io -->
<!DOCTYPE svg PUBLIC "-//W3C//DTD SVG 1.1//EN" "http://www.w3.org/Graphics/SVG/1.1/DTD/svg11.dtd">
<svg xmlns="http://www.w3.org/2000/svg" xmlns:xlink="http://www.w3.org/1999/xlink" version="1.1" width="61px" height="61px" viewBox="-0.5 -0.5 61 61" content="&lt;mxfile host=&quot;Electron&quot; agent=&quot;Mozilla/5.0 (Windows NT 10.0; Win64; x64) AppleWebKit/537.36 (KHTML, like Gecko) draw.io/24.7.5 Chrome/126.0.6478.183 Electron/31.3.0 Safari/537.36&quot; version=&quot;24.7.5&quot;&gt;&#10;  &lt;diagram name=&quot;Page-1&quot; id=&quot;tKu5dvDkovTYUAbwynBG&quot;&gt;&#10;    &lt;mxGraphModel dx=&quot;2074&quot; dy=&quot;1204&quot; grid=&quot;1&quot; gridSize=&quot;10&quot; guides=&quot;1&quot; tooltips=&quot;1&quot; connect=&quot;1&quot; arrows=&quot;1&quot; fold=&quot;1&quot; page=&quot;1&quot; pageScale=&quot;1&quot; pageWidth=&quot;850&quot; pageHeight=&quot;1100&quot; math=&quot;0&quot; shadow=&quot;0&quot;&gt;&#10;      &lt;root&gt;&#10;        &lt;mxCell id=&quot;0&quot; /&gt;&#10;        &lt;mxCell id=&quot;1&quot; parent=&quot;0&quot; /&gt;&#10;        &lt;mxCell id=&quot;O2pwFqMva1Umr-pb45_9-2&quot; value=&quot;&quot; style=&quot;sketch=0;outlineConnect=0;fontColor=#232F3E;gradientColor=none;strokeColor=#232F3E;fillColor=#00D1A1;dashed=0;verticalLabelPosition=bottom;verticalAlign=top;align=center;html=1;fontSize=12;fontStyle=0;aspect=fixed;shape=mxgraph.aws4.resourceIcon;resIcon=mxgraph.aws4.cart;&quot; vertex=&quot;1&quot; parent=&quot;1&quot;&gt;&#10;          &lt;mxGeometry x=&quot;220&quot; y=&quot;380&quot; width=&quot;60&quot; height=&quot;60&quot; as=&quot;geometry&quot; /&gt;&#10;        &lt;/mxCell&gt;&#10;      &lt;/root&gt;&#10;    &lt;/mxGraphModel&gt;&#10;  &lt;/diagram&gt;&#10;&lt;/mxfile&gt;&#10;"><defs/><g><g data-cell-id="0"><g data-cell-id="1"><g data-cell-id="O2pwFqMva1Umr-pb45_9-2"><g><path d="M 0 0 L 60 0 L 60 60 L 0 60 Z" fill="#00d1a1" stroke="none" pointer-events="all"/><path d="M 37.96 33.71 L 24.61 33.71 L 21.38 23.41 L 41.19 23.41 Z M 39.47 40.56 C 39.47 41.28 38.88 41.87 38.16 41.87 C 37.44 41.87 36.85 41.28 36.85 40.56 C 36.85 39.84 37.44 39.25 38.16 39.25 C 38.88 39.25 39.47 39.84 39.47 40.56 Z M 23.41 40.56 C 23.41 39.84 24 39.25 24.72 39.25 C 25.44 39.25 26.03 39.84 26.03 40.56 C 26.03 41.28 25.44 41.87 24.72 41.87 C 24 41.87 23.41 41.28 23.41 40.56 Z M 21.25 21.23 L 20.61 18.72 C 20.41 18.02 19.81 17.49 19.13 17.4 L 15.9 16.47 L 15.3 18.57 L 18.56 19.51 L 19.22 22.11 C 19 22.49 18.94 22.94 19.07 23.37 L 22.64 34.71 C 22.86 35.42 23.53 35.89 24.31 35.89 L 25.35 35.89 L 24.78 37.07 C 24.76 37.07 24.74 37.07 24.72 37.07 C 22.79 37.07 21.23 38.63 21.23 40.56 C 21.23 42.48 22.79 44.05 24.72 44.05 C 26.26 44.05 27.56 43.04 28.02 41.65 L 34.86 41.65 C 35.32 43.04 36.62 44.05 38.16 44.05 C 40.08 44.05 41.65 42.48 41.65 40.56 C 41.65 38.63 40.08 37.07 38.16 37.07 C 36.62 37.07 35.32 38.08 34.86 39.47 L 28.02 39.47 C 27.8 38.8 27.39 38.23 26.85 37.81 L 27.78 35.89 L 38.26 35.89 C 39.04 35.89 39.71 35.42 39.94 34.71 L 43.5 23.37 C 43.65 22.88 43.56 22.36 43.26 21.94 C 42.93 21.49 42.4 21.23 41.83 21.23 Z M 47.15 45.91 C 47.15 46.59 46.59 47.15 45.91 47.15 L 14.09 47.15 C 13.41 47.15 12.85 46.59 12.85 45.91 L 12.85 14.11 C 12.85 13.43 13.41 12.87 14.09 12.87 L 45.91 12.87 C 46.59 12.87 47.15 13.43 47.15 14.11 Z M 54 19.57 L 54 17.39 L 49.33 17.39 L 49.33 14.11 C 49.33 12.22 47.79 10.69 45.91 10.69 L 42.61 10.69 L 42.61 6 L 40.43 6 L 40.43 10.69 L 36.85 10.69 L 36.85 6 L 34.67 6 L 34.67 10.69 L 31.09 10.69 L 31.09 6 L 28.91 6 L 28.91 10.69 L 25.33 10.69 L 25.33 6 L 23.15 6 L 23.15 10.69 L 19.57 10.69 L 19.57 6 L 17.39 6 L 17.39 10.69 L 14.09 10.69 C 12.21 10.69 10.67 12.22 10.67 14.11 L 10.67 17.39 L 6 17.39 L 6 19.57 L 10.67 19.57 L 10.67 23.15 L 6 23.15 L 6 25.33 L 10.67 25.33 L 10.67 28.91 L 6 28.91 L 6 31.09 L 10.67 31.09 L 10.67 34.67 L 6 34.67 L 6 36.85 L 10.67 36.85 L 10.67 40.43 L 6 40.43 L 6 42.61 L 10.67 42.61 L 10.67 45.91 C 10.67 47.8 12.21 49.33 14.09 49.33 L 17.39 49.33 L 17.39 54 L 19.57 54 L 19.57 49.33 L 23.15 49.33 L 23.15 54 L 25.33 54 L 25.33 49.33 L 28.91 49.33 L 28.91 54 L 31.09 54 L 31.09 49.33 L 34.67 49.33 L 34.67 54 L 36.85 54 L 36.85 49.33 L 40.43 49.33 L 40.43 54 L 42.61 54 L 42.61 49.33 L 45.91 49.33 C 47.79 49.33 49.33 47.8 49.33 45.91 L 49.33 42.61 L 54 42.61 L 54 40.43 L 49.33 40.43 L 49.33 36.85 L 54 36.85 L 54 34.67 L 49.33 34.67 L 49.33 31.09 L 54 31.09 L 54 28.91 L 49.33 28.91 L 49.33 25.33 L 54 25.33 L 54 23.15 L 49.33 23.15 L 49.33 19.57 Z" fill="#232f3e" stroke="none" pointer-events="all"/></g></g></g></g></g></svg>