<svg version="1.1" id="Ibm-Cloud-Event-Streams--Streamline-Carbon.svg" xmlns="http://www.w3.org/2000/svg" xmlns:xlink="http://www.w3.org/1999/xlink" x="0" y="0" viewBox="-0.5 -0.5 24 24" xml:space="preserve" enable-background="new 0 0 32 32" height="24" width="24"><desc>Ibm Cloud Event Streams Streamline Icon: https://streamlinehq.com</desc><path d="m16.890625 6.6125 -0.71875 1.221875c1.58125 0.8624999999999999 2.515625 2.5875 2.515625 4.3843749999999995 0 3.7375000000000003 -2.7312499999999997 6.253125 -4.3125 7.33125V17.25h-0.71875c-1.796875 0 -3.521875 -1.0062499999999999 -4.3843749999999995 -2.5875l-1.221875 0.71875c1.0062499999999999 1.8687500000000001 2.875 3.0187500000000003 4.9593750000000005 3.30625v2.15625c0 0.21562499999999998 0.14375000000000002 0.5031249999999999 0.359375 0.646875 0 0.07187500000000001 0.14375000000000002 0.07187500000000001 0.28750000000000003 0.07187500000000001s0.21562499999999998 0 0.28750000000000003 -0.07187500000000001c0.28750000000000003 -0.14375000000000002 6.1812499999999995 -3.1625 6.1812499999999995 -9.271875 0 -2.3000000000000003 -1.221875 -4.45625 -3.234375 -5.60625z" stroke-width="1"></path><path d="M14.375 9.415625V5.60625c0.8624999999999999 -0.28750000000000003 1.4375 -1.078125 1.4375 -2.0124999999999997 0 -1.221875 -0.9343750000000001 -2.15625 -2.15625 -2.15625s-2.15625 0.9343750000000001 -2.15625 2.15625c0 0.9343750000000001 0.5750000000000001 1.7249999999999999 1.4375 2.0124999999999997v3.8093749999999997c-0.28750000000000003 0.07187500000000001 -0.5031249999999999 0.14375000000000002 -0.71875 0.28750000000000003l-3.8093749999999997 -3.8093749999999997c0.14375000000000002 -0.21562499999999998 0.21562499999999998 -0.5031249999999999 0.21562499999999998 -0.8624999999999999 0 -1.221875 -0.9343750000000001 -2.15625 -2.15625 -2.15625S4.3125 3.8093749999999997 4.3125 5.03125s0.9343750000000001 2.15625 2.15625 2.15625c0.359375 0 0.646875 -0.07187500000000001 0.9343750000000001 -0.21562499999999998l3.8093749999999997 3.8093749999999997c-0.14375000000000002 0.21562499999999998 -0.21562499999999998 0.5031249999999999 -0.28750000000000003 0.71875H7.04375c-0.28750000000000003 -0.8624999999999999 -1.078125 -1.4375 -2.0124999999999997 -1.4375 -1.221875 0 -2.15625 0.9343750000000001 -2.15625 2.15625s0.9343750000000001 2.15625 2.15625 2.15625c0.9343750000000001 0 1.7249999999999999 -0.5750000000000001 2.0124999999999997 -1.4375h3.8093749999999997c0.28750000000000003 1.221875 1.4375 2.15625 2.803125 2.15625 1.58125 0 2.875 -1.29375 2.875 -2.875 0 -1.3656249999999999 -0.9343750000000001 -2.44375 -2.15625 -2.803125zM13.65625 2.875c0.43124999999999997 0 0.71875 0.28750000000000003 0.71875 0.71875s-0.28750000000000003 0.71875 -0.71875 0.71875 -0.71875 -0.28750000000000003 -0.71875 -0.71875 0.28750000000000003 -0.71875 0.71875 -0.71875zM6.46875 5.75c-0.43124999999999997 0 -0.71875 -0.28750000000000003 -0.71875 -0.71875s0.28750000000000003 -0.71875 0.71875 -0.71875 0.71875 0.28750000000000003 0.71875 0.71875 -0.28750000000000003 0.71875 -0.71875 0.71875zM5.03125 12.9375c-0.43124999999999997 0 -0.71875 -0.28750000000000003 -0.71875 -0.71875s0.28750000000000003 -0.71875 0.71875 -0.71875 0.71875 0.28750000000000003 0.71875 0.71875 -0.28750000000000003 0.71875 -0.71875 0.71875zm8.625 0.71875c-0.790625 0 -1.4375 -0.646875 -1.4375 -1.4375s0.646875 -1.4375 1.4375 -1.4375 1.4375 0.646875 1.4375 1.4375 -0.646875 1.4375 -1.4375 1.4375z" stroke-width="1"></path><path id="_x3C_Transparent_Rectangle_x3E__232_" d="M0 0h23v23H0Z" fill="none" stroke-width="1"></path></svg>