<?xml version="1.0" encoding="UTF-8"?>
<!-- Do not edit this file with editors other than draw.io -->
<!DOCTYPE svg PUBLIC "-//W3C//DTD SVG 1.1//EN" "http://www.w3.org/Graphics/SVG/1.1/DTD/svg11.dtd">
<svg xmlns="http://www.w3.org/2000/svg" xmlns:xlink="http://www.w3.org/1999/xlink" version="1.1" width="78px" height="78px" viewBox="-0.5 -0.5 78 78" content="&lt;mxfile host=&quot;Electron&quot; agent=&quot;Mozilla/5.0 (Windows NT 10.0; Win64; x64) AppleWebKit/537.36 (KHTML, like Gecko) draw.io/24.7.5 Chrome/126.0.6478.183 Electron/31.3.0 Safari/537.36&quot; version=&quot;24.7.5&quot;&gt;&#10;  &lt;diagram name=&quot;Page-1&quot; id=&quot;tKu5dvDkovTYUAbwynBG&quot;&gt;&#10;    &lt;mxGraphModel dx=&quot;2074&quot; dy=&quot;1204&quot; grid=&quot;1&quot; gridSize=&quot;10&quot; guides=&quot;1&quot; tooltips=&quot;1&quot; connect=&quot;1&quot; arrows=&quot;1&quot; fold=&quot;1&quot; page=&quot;1&quot; pageScale=&quot;1&quot; pageWidth=&quot;850&quot; pageHeight=&quot;1100&quot; math=&quot;0&quot; shadow=&quot;0&quot;&gt;&#10;      &lt;root&gt;&#10;        &lt;mxCell id=&quot;0&quot; /&gt;&#10;        &lt;mxCell id=&quot;1&quot; parent=&quot;0&quot; /&gt;&#10;        &lt;mxCell id=&quot;wguvTmdJM-rGTg1trYPb-1&quot; value=&quot;&quot; style=&quot;sketch=0;outlineConnect=0;fontColor=#232F3E;gradientColor=none;fillColor=#00D1A1;strokeColor=none;dashed=0;verticalLabelPosition=bottom;verticalAlign=top;align=center;html=1;fontSize=12;fontStyle=0;aspect=fixed;pointerEvents=1;shape=mxgraph.aws4.inventory;&quot; vertex=&quot;1&quot; parent=&quot;1&quot;&gt;&#10;          &lt;mxGeometry x=&quot;390&quot; y=&quot;570&quot; width=&quot;78&quot; height=&quot;78&quot; as=&quot;geometry&quot; /&gt;&#10;        &lt;/mxCell&gt;&#10;      &lt;/root&gt;&#10;    &lt;/mxGraphModel&gt;&#10;  &lt;/diagram&gt;&#10;&lt;/mxfile&gt;&#10;"><defs/><g><g data-cell-id="0"><g data-cell-id="1"><g data-cell-id="wguvTmdJM-rGTg1trYPb-1"><g><rect x="0" y="0" width="78" height="78" fill="none" stroke="none" pointer-events="all"/><path d="M 19.13 62.09 L 19.13 59.45 L 21.77 59.45 L 21.77 62.09 Z M 15.59 65.63 L 25.31 65.63 L 25.31 55.91 L 15.59 55.91 Z M 31.5 62.09 L 31.5 59.45 L 34.14 59.45 L 34.14 62.09 Z M 27.96 65.63 L 37.68 65.63 L 37.68 55.91 L 27.96 55.91 Z M 43.86 62.09 L 43.86 59.45 L 46.5 59.45 L 46.5 62.09 Z M 40.32 65.63 L 50.04 65.63 L 50.04 55.91 L 40.32 55.91 Z M 56.23 62.09 L 56.23 59.45 L 58.87 59.45 L 58.87 62.09 Z M 52.69 65.63 L 62.41 65.63 L 62.41 55.91 L 52.69 55.91 Z M 19.13 49.73 L 19.13 47.09 L 21.77 47.09 L 21.77 49.73 Z M 15.59 53.27 L 25.31 53.27 L 25.31 43.54 L 15.59 43.54 Z M 31.5 49.73 L 31.5 47.09 L 34.14 47.09 L 34.14 49.73 Z M 27.96 53.27 L 37.68 53.27 L 37.68 43.54 L 27.96 43.54 Z M 43.86 49.73 L 43.86 47.09 L 46.5 47.09 L 46.5 49.73 Z M 40.32 53.27 L 50.04 53.27 L 50.04 43.54 L 40.32 43.54 Z M 19.13 37.36 L 19.13 34.72 L 21.77 34.72 L 21.77 37.36 Z M 15.59 40.91 L 25.31 40.91 L 25.31 31.18 L 15.59 31.18 Z M 31.5 37.36 L 31.5 34.72 L 34.14 34.72 L 34.14 37.36 Z M 27.96 40.91 L 37.68 40.91 L 37.68 31.18 L 27.96 31.18 Z M 12.95 68.28 L 12.95 28.54 L 65.05 28.54 L 65.05 68.28 Z M 9.41 71.82 L 68.59 71.82 L 68.59 25 L 9.41 25 Z M 3.68 24.26 L 39 4.08 L 74.32 24.26 L 74.32 74.46 L 3.68 74.46 Z M 39 0 L 0.13 22.21 L 0.13 78 L 77.87 78 L 77.87 22.21 Z" fill="#00d1a1" stroke="none" pointer-events="all"/></g></g></g></g></g></svg>