<?xml version="1.0" encoding="UTF-8"?>
<!-- Do not edit this file with editors other than draw.io -->
<!DOCTYPE svg PUBLIC "-//W3C//DTD SVG 1.1//EN" "http://www.w3.org/Graphics/SVG/1.1/DTD/svg11.dtd">
<svg xmlns="http://www.w3.org/2000/svg" xmlns:xlink="http://www.w3.org/1999/xlink" version="1.1" width="110px" height="70px" viewBox="-0.5 -0.5 110 70" content="&lt;mxfile host=&quot;Electron&quot; agent=&quot;Mozilla/5.0 (Windows NT 10.0; Win64; x64) AppleWebKit/537.36 (KHTML, like Gecko) draw.io/24.7.5 Chrome/126.0.6478.183 Electron/31.3.0 Safari/537.36&quot; version=&quot;24.7.5&quot;&gt;&#10;  &lt;diagram name=&quot;Page-1&quot; id=&quot;tKu5dvDkovTYUAbwynBG&quot;&gt;&#10;    &lt;mxGraphModel dx=&quot;2074&quot; dy=&quot;1204&quot; grid=&quot;1&quot; gridSize=&quot;10&quot; guides=&quot;1&quot; tooltips=&quot;1&quot; connect=&quot;1&quot; arrows=&quot;1&quot; fold=&quot;1&quot; page=&quot;1&quot; pageScale=&quot;1&quot; pageWidth=&quot;850&quot; pageHeight=&quot;1100&quot; math=&quot;0&quot; shadow=&quot;0&quot;&gt;&#10;      &lt;root&gt;&#10;        &lt;mxCell id=&quot;0&quot; /&gt;&#10;        &lt;mxCell id=&quot;1&quot; parent=&quot;0&quot; /&gt;&#10;        &lt;mxCell id=&quot;AkPXjze72pjPqGDbKw_e-1&quot; value=&quot;&quot; style=&quot;verticalLabelPosition=bottom;html=1;verticalAlign=top;align=center;strokeColor=none;fillColor=#00D1A1;shape=mxgraph.azure.laptop;pointerEvents=1;&quot; vertex=&quot;1&quot; parent=&quot;1&quot;&gt;&#10;          &lt;mxGeometry x=&quot;50&quot; y=&quot;40&quot; width=&quot;110&quot; height=&quot;70&quot; as=&quot;geometry&quot; /&gt;&#10;        &lt;/mxCell&gt;&#10;      &lt;/root&gt;&#10;    &lt;/mxGraphModel&gt;&#10;  &lt;/diagram&gt;&#10;&lt;/mxfile&gt;&#10;"><defs/><g><g data-cell-id="0"><g data-cell-id="1"><g data-cell-id="AkPXjze72pjPqGDbKw_e-1"><g><rect x="0" y="0" width="110" height="70" fill="none" stroke="none" pointer-events="all"/><path d="M 9.32 54.3 L 9.32 3.14 C 10 1.45 11.46 0.26 13.18 0 L 96.48 0 C 98.6 0.25 100.33 1.88 100.79 4.07 L 100.79 54.3 L 109.61 64.42 C 110 65.68 109.63 66.99 108.58 68.05 C 107.53 69.11 105.91 69.81 104.1 70 L 6.01 70 C 4.18 69.83 2.53 69.14 1.46 68.08 C 0.39 67.02 0 65.69 0.39 64.42 Z M 12.96 54.3 L 97.48 54.42 L 97.48 5.12 C 97.08 3.88 96.06 2.98 94.83 2.79 L 15.17 2.79 C 13.96 3.23 13.11 4.36 12.96 5.7 Z M 46.5 61.16 L 43.53 65.7 L 64.27 65.7 L 61.95 61.16 Z" fill="#00d1a1" stroke="none" pointer-events="all"/></g></g></g></g></g></svg>