<?xml version="1.0" encoding="UTF-8"?>
<!-- Do not edit this file with editors other than draw.io -->
<!DOCTYPE svg PUBLIC "-//W3C//DTD SVG 1.1//EN" "http://www.w3.org/Graphics/SVG/1.1/DTD/svg11.dtd">
<svg xmlns="http://www.w3.org/2000/svg" xmlns:xlink="http://www.w3.org/1999/xlink" version="1.1" width="81px" height="100px" viewBox="-0.5 -0.5 81 100" content="&lt;mxfile host=&quot;Electron&quot; agent=&quot;Mozilla/5.0 (Windows NT 10.0; Win64; x64) AppleWebKit/537.36 (KHTML, like Gecko) draw.io/24.7.5 Chrome/126.0.6478.183 Electron/31.3.0 Safari/537.36&quot; version=&quot;24.7.5&quot;&gt;&#10;  &lt;diagram name=&quot;Page-1&quot; id=&quot;tKu5dvDkovTYUAbwynBG&quot;&gt;&#10;    &lt;mxGraphModel dx=&quot;2074&quot; dy=&quot;1204&quot; grid=&quot;1&quot; gridSize=&quot;10&quot; guides=&quot;1&quot; tooltips=&quot;1&quot; connect=&quot;1&quot; arrows=&quot;1&quot; fold=&quot;1&quot; page=&quot;1&quot; pageScale=&quot;1&quot; pageWidth=&quot;850&quot; pageHeight=&quot;1100&quot; math=&quot;0&quot; shadow=&quot;0&quot;&gt;&#10;      &lt;root&gt;&#10;        &lt;mxCell id=&quot;0&quot; /&gt;&#10;        &lt;mxCell id=&quot;1&quot; parent=&quot;0&quot; /&gt;&#10;        &lt;mxCell id=&quot;uA-r8rwqpVJEQonIAWfs-1&quot; value=&quot;&quot; style=&quot;sketch=0;html=1;aspect=fixed;strokeColor=none;shadow=0;fillColor=#00D1A1;verticalAlign=top;labelPosition=center;verticalLabelPosition=bottom;shape=mxgraph.gcp2.view_list&quot; vertex=&quot;1&quot; parent=&quot;1&quot;&gt;&#10;          &lt;mxGeometry x=&quot;380&quot; y=&quot;560&quot; width=&quot;81&quot; height=&quot;100&quot; as=&quot;geometry&quot; /&gt;&#10;        &lt;/mxCell&gt;&#10;      &lt;/root&gt;&#10;    &lt;/mxGraphModel&gt;&#10;  &lt;/diagram&gt;&#10;&lt;/mxfile&gt;&#10;"><defs/><g><g data-cell-id="0"><g data-cell-id="1"><g data-cell-id="uA-r8rwqpVJEQonIAWfs-1"><g><path d="M 12.12 25.63 L 12.12 14.11 L 18.71 14.11 L 18.71 25.63 Z M 23.26 25.63 L 23.26 14.11 L 69.36 14.11 L 69.36 25.63 Z M 12.12 45.24 L 12.12 33.72 L 18.71 33.72 L 18.71 45.24 Z M 23.26 45.24 L 23.26 33.72 L 69.36 33.72 L 69.36 45.24 Z M 12.12 64.85 L 12.12 53.33 L 18.71 53.33 L 18.71 64.85 Z M 23.26 64.85 L 23.26 53.33 L 69.36 53.33 L 69.36 64.85 Z M 0 100 L 0 0 L 81 0 L 81 100 Z M 7.33 90.93 L 73.99 90.93 L 73.99 7.95 L 7.33 7.95 Z M 12.12 84.46 L 12.12 72.94 L 18.71 72.94 L 18.71 84.46 Z M 23.26 84.46 L 23.26 72.94 L 69.36 72.94 L 69.36 84.46 Z" fill="#00d1a1" stroke="none" pointer-events="all"/></g></g></g></g></g></svg>