<?xml version="1.0" encoding="UTF-8"?>
<!-- Do not edit this file with editors other than draw.io -->
<!DOCTYPE svg PUBLIC "-//W3C//DTD SVG 1.1//EN" "http://www.w3.org/Graphics/SVG/1.1/DTD/svg11.dtd">
<svg xmlns="http://www.w3.org/2000/svg" xmlns:xlink="http://www.w3.org/1999/xlink" version="1.1" width="120px" height="70px" viewBox="-0.5 -0.5 120 70" content="&lt;mxfile host=&quot;Electron&quot; agent=&quot;Mozilla/5.0 (Windows NT 10.0; Win64; x64) AppleWebKit/537.36 (KHTML, like Gecko) draw.io/24.7.5 Chrome/126.0.6478.183 Electron/31.3.0 Safari/537.36&quot; version=&quot;24.7.5&quot;&gt;&#10;  &lt;diagram name=&quot;Page-1&quot; id=&quot;tKu5dvDkovTYUAbwynBG&quot;&gt;&#10;    &lt;mxGraphModel dx=&quot;2074&quot; dy=&quot;1204&quot; grid=&quot;1&quot; gridSize=&quot;10&quot; guides=&quot;1&quot; tooltips=&quot;1&quot; connect=&quot;1&quot; arrows=&quot;1&quot; fold=&quot;1&quot; page=&quot;1&quot; pageScale=&quot;1&quot; pageWidth=&quot;850&quot; pageHeight=&quot;1100&quot; math=&quot;0&quot; shadow=&quot;0&quot;&gt;&#10;      &lt;root&gt;&#10;        &lt;mxCell id=&quot;0&quot; /&gt;&#10;        &lt;mxCell id=&quot;1&quot; parent=&quot;0&quot; /&gt;&#10;        &lt;mxCell id=&quot;AkPXjze72pjPqGDbKw_e-8&quot; value=&quot;&quot; style=&quot;html=1;whiteSpace=wrap;strokeColor=none;fillColor=#00D1A1;labelPosition=center;verticalLabelPosition=middle;verticalAlign=top;align=center;fontSize=12;outlineConnect=0;spacingTop=-6;fontColor=#FFFFFF;sketch=0;shape=mxgraph.sitemap.profile;&quot; vertex=&quot;1&quot; parent=&quot;1&quot;&gt;&#10;          &lt;mxGeometry x=&quot;30&quot; y=&quot;50&quot; width=&quot;120&quot; height=&quot;70&quot; as=&quot;geometry&quot; /&gt;&#10;        &lt;/mxCell&gt;&#10;      &lt;/root&gt;&#10;    &lt;/mxGraphModel&gt;&#10;  &lt;/diagram&gt;&#10;&lt;/mxfile&gt;&#10;"><defs/><g><g data-cell-id="0"><g data-cell-id="1"><g data-cell-id="AkPXjze72pjPqGDbKw_e-8"><g><path d="M 2 70 C 0.9 70 0 69.1 0 68 L 0 2 C 0 0.9 0.9 0 2 0 L 118 0 C 119.1 0 120 0.9 120 2 L 120 68 C 120 69.1 119.1 70 118 70 Z" fill="#00d1a1" stroke="none" pointer-events="all"/><path d="M 40.69 64.73 C 40.97 61.5 41.36 58.27 41.86 55.06 C 42.06 52.73 42.6 50.45 43.45 48.28 C 43.92 47.29 44.64 46.44 45.53 45.82 C 47.04 44.89 48.67 44.17 50.37 43.69 C 51.1 43.46 51.9 43.69 52.4 44.27 C 54.4 46.38 57.25 47.48 60.15 47.27 C 62.96 47.41 65.7 46.31 67.64 44.27 C 68.27 43.66 69.18 43.44 70.02 43.69 C 71.62 44.26 73.16 45.01 74.61 45.91 C 75.92 46.93 76.84 48.36 77.22 49.98 C 77.8 52.28 78.2 54.63 78.43 56.99 L 79.31 64.73 Z M 60.24 41.85 C 54.96 41.97 50.59 37.27 50.47 31.35 C 50.38 28.4 51.38 25.55 53.23 23.45 C 55.08 21.36 57.61 20.21 60.24 20.27 C 62.79 20.35 65.19 21.57 66.94 23.65 C 68.68 25.73 69.61 28.5 69.53 31.35 C 69.42 37.06 65.34 41.68 60.24 41.85 M 1 16 L 1 68 C 1 68.55 1.45 69 2 69 L 118 69 C 118.55 69 119 68.55 119 68 L 119 16 Z" fill-opacity="0.5" fill="#ffffff" stroke="none" pointer-events="all"/></g></g></g></g></g></svg>