<?xml version="1.0" encoding="UTF-8"?>
<!-- Do not edit this file with editors other than draw.io -->
<!DOCTYPE svg PUBLIC "-//W3C//DTD SVG 1.1//EN" "http://www.w3.org/Graphics/SVG/1.1/DTD/svg11.dtd">
<svg xmlns="http://www.w3.org/2000/svg" xmlns:xlink="http://www.w3.org/1999/xlink" version="1.1" width="48px" height="48px" viewBox="-0.5 -0.5 48 48" content="&lt;mxfile host=&quot;Electron&quot; agent=&quot;Mozilla/5.0 (Windows NT 10.0; Win64; x64) AppleWebKit/537.36 (KHTML, like Gecko) draw.io/24.7.5 Chrome/126.0.6478.183 Electron/31.3.0 Safari/537.36&quot; version=&quot;24.7.5&quot;&gt;&#10;  &lt;diagram name=&quot;Page-1&quot; id=&quot;tKu5dvDkovTYUAbwynBG&quot;&gt;&#10;    &lt;mxGraphModel dx=&quot;2074&quot; dy=&quot;1204&quot; grid=&quot;1&quot; gridSize=&quot;10&quot; guides=&quot;1&quot; tooltips=&quot;1&quot; connect=&quot;1&quot; arrows=&quot;1&quot; fold=&quot;1&quot; page=&quot;1&quot; pageScale=&quot;1&quot; pageWidth=&quot;850&quot; pageHeight=&quot;1100&quot; math=&quot;0&quot; shadow=&quot;0&quot;&gt;&#10;      &lt;root&gt;&#10;        &lt;mxCell id=&quot;0&quot; /&gt;&#10;        &lt;mxCell id=&quot;1&quot; parent=&quot;0&quot; /&gt;&#10;        &lt;mxCell id=&quot;rc4TQsn5i7QdVVCGtRfM-2&quot; value=&quot;&quot; style=&quot;sketch=0;pointerEvents=1;shadow=0;dashed=0;html=1;strokeColor=none;fillColor=#00D1A1;labelPosition=center;verticalLabelPosition=bottom;verticalAlign=top;outlineConnect=0;align=center;shape=mxgraph.office.concepts.settings_office_365;&quot; vertex=&quot;1&quot; parent=&quot;1&quot;&gt;&#10;          &lt;mxGeometry x=&quot;400&quot; y=&quot;590&quot; width=&quot;48&quot; height=&quot;48&quot; as=&quot;geometry&quot; /&gt;&#10;        &lt;/mxCell&gt;&#10;      &lt;/root&gt;&#10;    &lt;/mxGraphModel&gt;&#10;  &lt;/diagram&gt;&#10;&lt;/mxfile&gt;&#10;"><defs/><g><g data-cell-id="0"><g data-cell-id="1"><g data-cell-id="rc4TQsn5i7QdVVCGtRfM-2"><g><rect x="0" y="0" width="48" height="48" fill="none" stroke="none" pointer-events="all"/><path d="M 24.2 27.98 C 21.17 27.98 20.04 25.55 20.04 24.02 C 20.04 21.29 22.22 19.94 24.19 19.94 C 25.81 19.94 28.05 21.34 28.05 24.02 C 28.05 25.77 26.58 27.98 24.2 27.98 Z M 24.2 34.76 C 29.91 34.76 34.71 29.93 34.71 24.02 C 34.71 17.18 29.07 13.17 24.2 13.17 C 18.1 13.17 13.27 17.93 13.27 24.02 C 13.27 30.05 18.02 34.76 24.2 34.76 Z M 2.1 34.38 L 0 26.56 L 6.37 24 C 6.35 22.76 6.55 21.12 6.9 19.72 L 1.34 15.72 L 5.25 8.8 L 11.4 11.44 C 12.46 10.38 13.61 9.43 14.92 8.65 L 13.95 2.03 L 21.75 0 L 24.15 6.24 C 25.63 6.24 27.09 6.36 28.5 6.77 L 32.4 1.41 L 39.3 5.34 L 36.67 11.35 C 37.73 12.5 38.68 13.7 39.45 14.97 L 45.9 14 L 48 21.74 L 41.92 24.15 C 41.91 25.67 41.73 27.15 41.32 28.6 L 46.5 32.43 L 42.6 39.35 L 36.6 36.72 C 35.56 37.87 34.39 38.64 33.22 39.35 L 34.27 45.89 L 26.47 48 L 24 41.84 C 22.5 41.86 20.95 41.68 19.57 41.31 L 15.67 46.73 L 8.77 42.81 L 11.4 36.63 C 10.43 35.63 9.54 34.54 8.78 33.26 Z" fill="#00d1a1" stroke="none" pointer-events="all"/></g></g></g></g></g></svg>