<svg xmlns="http://www.w3.org/2000/svg" xmlns:xlink="http://www.w3.org/1999/xlink" viewBox="0 0 77 51" fill="#fff" fill-rule="evenodd" stroke="#000" stroke-linecap="round" stroke-linejoin="round"><use xlink:href="#A" x=".5" y=".5"/><symbol id="A" overflow="visible"><g stroke="none" fill="#32b52f" fill-rule="nonzero"><path d="M39.354 0c-9.716 0-18.99 5.81-22.549 13.917C7.389 14.72 0 22.324 0 31.947 0 42.103 8.234 50 18.39 50h41.186c8.851 0 16.027-7.016 16.027-15.868a16.09 16.09 0 0 0-11.7-15.475C61.221 7.609 50.458 0 39.354 0m0 1.966c10.532 0 20.265 7.375 22.639 17.154l.272 1.119 1.109.31c6.043 1.693 10.264 7.279 10.264 13.582a13.73 13.73 0 0 1-4.109 9.853c-2.647 2.61-6.181 4.048-9.952 4.048H18.39c-9.209 0-16.424-7.066-16.424-16.086 0-8.432 6.451-15.341 15.005-16.071l1.164-.099.469-1.069C21.898 7.206 30.43 1.966 39.354 1.966M22.711 39.93c-.354 0-.468.038-.545.105-.105.095-.258.354-.258 2.007s.153 1.911.258 1.997c.077.077.191.105.545.105h.87c.363 0 .468-.029.554-.105.105-.086.258-.344.258-1.997s-.153-1.912-.258-2.007c-.086-.067-.191-.105-.554-.105h-.87zm1.214-1.233c.736 0 1.089.086 1.376.354.392.354.717 1.051.717 2.991 0 1.93-.325 2.628-.717 2.991-.287.258-.64.354-1.376.354h-1.558c-.736 0-1.08-.096-1.367-.354-.401-.363-.717-1.061-.717-2.991 0-1.94.315-2.638.717-2.991.287-.267.631-.354 1.367-.354h1.558zm5.89 5.255v-4.724l-.95.325-.342-1.01 1.583-.59h1.095v5.999h-1.386zm6.488-6.455c-.266 0-.352.029-.41.079-.079.072-.194.266-.194 1.511s.115 1.439.194 1.504c.058.058.144.079.41.079h.655c.273 0 .352-.022.417-.079.079-.065.194-.259.194-1.504s-.115-1.439-.194-1.511c-.065-.05-.144-.079-.417-.079h-.655zm.914-.928c.554 0 .82.065 1.036.266.295.266.54.791.54 2.252 0 1.453-.245 1.979-.54 2.252-.216.194-.482.266-1.036.266h-1.173c-.554 0-.813-.072-1.029-.266-.302-.273-.54-.798-.54-2.252 0-1.461.238-1.986.54-2.252.216-.201.475-.266 1.029-.266h1.173zm4.595 2.592v-3.577l-.719.246-.259-.765 1.199-.447h.829v4.542h-1.05zm4.156-2.574V33.3l-.661.226-.238-.703 1.102-.411h.762v4.174h-.965zm3.826-6.196c-.173 0-.229.019-.267.052-.052.047-.126.173-.126.983s.075.936.126.978c.037.038.094.052.267.052h.426c.178 0 .229-.014.272-.052.051-.042.126-.169.126-.978s-.075-.936-.126-.983c-.042-.033-.094-.052-.272-.052h-.426zm.594-.604c.36 0 .533.042.674.173.192.173.351.515.351 1.465s-.159 1.287-.351 1.465c-.14.126-.313.173-.674.173h-.763c-.36 0-.529-.047-.669-.173-.197-.178-.351-.52-.351-1.465s.154-1.292.351-1.465c.14-.131.309-.173.669-.173h.763zm2.492-2.672c-.143 0-.19.015-.221.043-.043.039-.105.143-.105.814s.062.775.105.81c.031.031.077.043.221.043h.353c.147 0 .19-.012.225-.043.042-.035.105-.14.105-.81s-.062-.775-.105-.814c-.035-.027-.078-.043-.225-.043h-.353zm.492-.5c.298 0 .442.035.558.143.159.143.291.426.291 1.213s-.132 1.066-.291 1.214c-.116.105-.26.143-.558.143h-.632c-.299 0-.438-.039-.554-.143-.163-.147-.291-.43-.291-1.214s.128-1.07.291-1.213c.116-.109.256-.143.554-.143h.632zm1.794-2.591c-.104 0-.138.011-.161.031-.031.028-.076.104-.076.592s.045.564.076.589c.023.022.056.031.161.031h.257c.107 0 .138-.008.164-.031s.076-.102.076-.589-.045-.564-.076-.592c-.025-.02-.056-.031-.164-.031h-.257zm.358-.364c.217 0 .321.025.406.104.116.104.211.31.211.883s-.096.775-.211.883c-.084.076-.189.104-.406.104h-.46c-.217 0-.318-.028-.403-.104-.118-.107-.212-.313-.212-.883s.093-.778.212-.883c.085-.079.186-.104.403-.104h.46z"/><path d="M60.352 3.004c-2.171 6.291-9.785 11.217-15.957 12.684-5.786 1.378-10.906.246-16.259 2.306-10.359 3.982-11.051 13.72-7.566 19.39.272.442 13.745-.631 20.364-3.468 8.811-3.776 14.072-10.904 15.437-13.558.103-.109.436-.396.969-.226a.77.77 0 0 1 .58.79c-.601 2.759-3.177 12.28-13.405 18.319-4.652 2.746-8.218 4.098-10.825 4.807-.438.119-.416.443.082.439 6.379-.049 20.935.883 26.998-6.82 7.019-9.348 3.303-24.077-.418-34.665"/></g></symbol></svg>