<svg width="188" height="30" viewBox="0 0 188 30" fill="none" xmlns="http://www.w3.org/2000/svg">
<path d="M64.6184 10.3242H60.0378V23H58.1684V10.3242H53.5977V8.78125H64.6184V10.3242Z" fill="#37474F"/>
<path d="M71.959 17.248H68.6117V23H66.7227V8.78125H71.4402C73.0454 8.78125 74.2786 9.14583 75.1399 9.875C76.0077 10.6042 76.4417 11.6654 76.4417 13.0586C76.4417 13.944 76.2002 14.7155 75.7174 15.373C75.2411 16.0306 74.5755 16.5221 73.7207 16.8477L77.068 22.8828V23H75.0518L71.959 17.248ZM68.6117 15.7148H71.499C72.432 15.7148 73.1726 15.474 73.7207 14.9922C74.2754 14.5104 74.5527 13.8659 74.5527 13.0586C74.5527 12.1797 74.2884 11.5059 73.7599 11.0371C73.2379 10.5684 72.481 10.3307 71.4892 10.3242H68.6117V15.7148Z" fill="#37474F"/>
<path d="M81.1005 23H79.2213V8.78125H81.1005V23Z" fill="#37474F"/>
<path d="M95.0672 21.1348C94.5844 21.8249 93.9091 22.3424 93.0412 22.6875C92.1799 23.026 91.1751 23.1953 90.0267 23.1953C88.8652 23.1953 87.8343 22.9251 86.9338 22.3848C86.0334 21.8379 85.3352 21.0632 84.8393 20.0605C84.3499 19.0579 84.0987 17.8958 84.0857 16.5742V15.334C84.0857 13.1921 84.5848 11.5319 85.5832 10.3535C86.588 9.17513 87.9974 8.58594 89.8114 8.58594C91.2991 8.58594 92.4964 8.9668 93.4034 9.72852C94.3103 10.4837 94.865 11.5579 95.0672 12.9512H93.188C92.8357 11.0697 91.7134 10.1289 89.8211 10.1289C88.5618 10.1289 87.6059 10.5716 86.9534 11.457C86.3074 12.3359 85.9812 13.612 85.9747 15.2852V16.4473C85.9747 18.0423 86.3401 19.3118 87.0709 20.2559C87.8017 21.1934 88.7902 21.6621 90.0365 21.6621C90.7412 21.6621 91.3578 21.584 91.8863 21.4277C92.4148 21.2715 92.852 21.0078 93.1978 20.6367V17.4434H89.8994V15.9199H95.0672V21.1348Z" fill="#37474F"/>
<path d="M108.731 21.1348C108.248 21.8249 107.572 22.3424 106.705 22.6875C105.843 23.026 104.838 23.1953 103.69 23.1953C102.529 23.1953 101.498 22.9251 100.597 22.3848C99.6967 21.8379 98.9985 21.0632 98.5026 20.0605C98.0133 19.0579 97.7621 17.8958 97.749 16.5742V15.334C97.749 13.1921 98.2482 11.5319 99.2465 10.3535C100.251 9.17513 101.661 8.58594 103.475 8.58594C104.962 8.58594 106.16 8.9668 107.067 9.72852C107.974 10.4837 108.528 11.5579 108.731 12.9512H106.851C106.499 11.0697 105.377 10.1289 103.484 10.1289C102.225 10.1289 101.269 10.5716 100.617 11.457C99.9708 12.3359 99.6445 13.612 99.638 15.2852V16.4473C99.638 18.0423 100.003 19.3118 100.734 20.2559C101.465 21.1934 102.454 21.6621 103.7 21.6621C104.404 21.6621 105.021 21.584 105.55 21.4277C106.078 21.2715 106.515 21.0078 106.861 20.6367V17.4434H103.563V15.9199H108.731V21.1348Z" fill="#37474F"/>
<path d="M119.927 16.4277H113.752V21.4668H120.926V23H111.872V8.78125H120.828V10.3242H113.752V14.8945H119.927V16.4277Z" fill="#37474F"/>
<path d="M128.492 17.248H125.144V23H123.255V8.78125H127.973C129.578 8.78125 130.811 9.14583 131.672 9.875C132.54 10.6042 132.974 11.6654 132.974 13.0586C132.974 13.944 132.733 14.7155 132.25 15.373C131.774 16.0306 131.108 16.5221 130.253 16.8477L133.601 22.8828V23H131.584L128.492 17.248ZM125.144 15.7148H128.031C128.965 15.7148 129.705 15.474 130.253 14.9922C130.808 14.5104 131.085 13.8659 131.085 13.0586C131.085 12.1797 130.821 11.5059 130.292 11.0371C129.77 10.5684 129.014 10.3307 128.022 10.3242H125.144V15.7148Z" fill="#37474F"/>
<path d="M139.072 8.78125L142.732 19.0938L146.373 8.78125H150.23V23H147.283V19.1133L147.577 12.4043L143.731 23H141.714L137.878 12.4141L138.171 19.1133V23H135.235V8.78125H139.072Z" fill="#37474F"/>
<path d="M161.368 16.8379H155.73V20.6465H162.346V23H152.794V8.78125H162.327V11.1543H155.73V14.543H161.368V16.8379Z" fill="#37474F"/>
<path d="M171.459 19.2695C171.459 18.7161 171.263 18.293 170.871 18C170.48 17.7005 169.775 17.388 168.757 17.0625C167.739 16.7305 166.933 16.4049 166.34 16.0859C164.722 15.2135 163.912 14.0384 163.912 12.5605C163.912 11.7923 164.128 11.1087 164.558 10.5098C164.996 9.9043 165.619 9.43229 166.428 9.09375C167.243 8.75521 168.157 8.58594 169.168 8.58594C170.186 8.58594 171.093 8.77148 171.889 9.14258C172.685 9.50716 173.302 10.0247 173.739 10.6953C174.183 11.3659 174.405 12.1276 174.405 12.9805H171.468C171.468 12.3294 171.263 11.8249 170.852 11.4668C170.441 11.1022 169.863 10.9199 169.119 10.9199C168.402 10.9199 167.844 11.0729 167.446 11.3789C167.048 11.6784 166.849 12.0755 166.849 12.5703C166.849 13.0326 167.08 13.4199 167.544 13.7324C168.013 14.0449 168.702 14.3379 169.609 14.6113C171.279 15.1126 172.496 15.7344 173.259 16.4766C174.023 17.2188 174.405 18.1432 174.405 19.25C174.405 20.4805 173.938 21.4473 173.005 22.1504C172.072 22.847 170.816 23.1953 169.237 23.1953C168.141 23.1953 167.142 22.9967 166.242 22.5996C165.341 22.196 164.653 21.6458 164.177 20.9492C163.707 20.2526 163.472 19.4453 163.472 18.5273H166.418C166.418 20.0964 167.358 20.8809 169.237 20.8809C169.935 20.8809 170.48 20.7409 170.871 20.4609C171.263 20.1745 171.459 19.7773 171.459 19.2695Z" fill="#37474F"/>
<path d="M187.999 23H185.063V16.9062H179.337V23H176.401V8.78125H179.337V14.543H185.063V8.78125H187.999V23Z" fill="#37474F"/>
<g clip-path="url(#clip0)">
<path fill-rule="evenodd" clip-rule="evenodd" d="M41.1417 11.6262C40.5208 -0.0504053 24.128 -4.9969 17.0041 6.61725C12.4049 4.56612 6.88766 7.69335 6.80822 12.8866C-2.31363 13.8319 -3.27584 27.9014 10.1862 27.9014H10.6364C10.2705 26.8267 10.2977 25.6551 10.713 24.5988H9.30348C2.82991 24.5542 1.11736 15.0685 9.76546 15.9484C8.19709 10.7017 13.6555 6.34971 18.2429 10.2914C22.3624 0.59466 37.5783 0.297394 38.2698 14.1589C46.7354 14.7534 46.4706 23.8438 40.2736 24.7029H31.6344C31.945 25.1678 32.1369 25.7033 32.1929 26.2614C32.2489 26.8195 32.1672 27.383 31.9551 27.9014H40.2736C49.678 27.7082 51.3817 13.6208 41.1417 11.6262Z" fill="#1976D2"/>
<path fill-rule="evenodd" clip-rule="evenodd" d="M24.6222 18.0591L24.7075 17.9134C25.5697 16.3557 29.0007 16.2547 30.3454 17.4943C30.7117 18.0292 31.2042 18.4634 31.7784 18.7576C32.1813 18.9597 32.6202 19.0781 33.0692 19.1059C33.5182 19.1336 33.9681 19.07 34.3923 18.9189C34.8166 18.7679 35.2065 18.5324 35.539 18.2264C35.8716 17.9204 36.14 17.5501 36.3284 17.1374C36.5168 16.7248 36.6213 16.2782 36.6358 15.824C36.6503 15.3698 36.5745 14.9173 36.4128 14.4932C36.2511 14.0692 36.0069 13.6822 35.6946 13.3552C35.3822 13.0281 35.0081 12.7678 34.5944 12.5894C32.9083 11.8046 31.0281 12.5894 30.1335 14.2481C29.136 16.0882 25.2695 15.5264 24.5192 14.7059C24.0333 14.0994 23.3876 13.6439 22.6566 13.392C22.1334 13.1845 21.5652 13.1205 21.0096 13.2065C20.454 13.2925 19.9308 13.5254 19.4931 13.8815C19.0554 14.2377 18.7187 14.7045 18.5172 15.2346C18.3157 15.7646 18.2565 16.3391 18.3458 16.8997C18.3928 17.197 18.3693 17.197 18.7224 18.065C19.0755 18.933 17.36 22.7618 15.5945 23.0947C14.9472 23.0629 14.3024 23.1969 13.7201 23.4841C13.3124 23.6832 12.9487 23.9634 12.6508 24.3078C12.3529 24.6523 12.1269 25.054 11.9864 25.4889C11.8459 25.9237 11.7937 26.3828 11.833 26.8385C11.8724 27.2942 12.0024 27.7372 12.2153 28.1409C12.4282 28.5446 12.7196 28.9007 13.072 29.1879C13.4244 29.4751 13.8306 29.6875 14.2663 29.8122C14.7019 29.937 15.158 29.9716 15.6072 29.914C16.0564 29.8564 16.4894 29.7078 16.8804 29.477C18.5194 28.5852 19.0225 26.5965 18.2692 24.8843C17.4218 22.9699 19.9435 19.9497 21.3736 19.8545C22.8037 19.7594 25.3048 23.1869 24.4486 24.7773C23.5658 26.4241 23.9101 28.4574 25.4755 29.4681C26.2271 29.9316 27.1286 30.0788 27.9865 29.8782C28.8443 29.6775 29.5901 29.145 30.0635 28.395C30.537 27.645 30.7005 26.7373 30.5188 25.8669C30.3371 24.9965 29.8248 24.2328 29.0919 23.7398C28.5365 23.4101 27.9083 23.2262 27.2646 23.2047C25.4991 22.7321 23.7012 19.8159 24.5339 18.2404L24.6222 18.0591ZM33.335 14.2125C33.626 14.2125 33.9105 14.2996 34.1524 14.4629C34.3944 14.6263 34.5829 14.8584 34.6943 15.13C34.8056 15.4016 34.8348 15.7004 34.778 15.9887C34.7212 16.2771 34.5811 16.5419 34.3754 16.7498C34.1696 16.9576 33.9074 17.0992 33.622 17.1565C33.3366 17.2139 33.0408 17.1845 32.772 17.072C32.5031 16.9595 32.2734 16.769 32.1117 16.5245C31.95 16.2801 31.8637 15.9927 31.8637 15.6988C31.8637 15.3046 32.0188 14.9265 32.2947 14.6478C32.5706 14.369 32.9448 14.2125 33.335 14.2125ZM15.2679 28.1126C14.9769 28.1126 14.6924 28.0254 14.4505 27.8621C14.2085 27.6988 14.0199 27.4666 13.9086 27.195C13.7972 26.9234 13.7681 26.6246 13.8249 26.3363C13.8816 26.048 14.0218 25.7831 14.2275 25.5753C14.4333 25.3674 14.6954 25.2258 14.9808 25.1685C15.2662 25.1111 15.5621 25.1406 15.8309 25.2531C16.0997 25.3656 16.3295 25.5561 16.4912 25.8005C16.6528 26.0449 16.7391 26.3323 16.7391 26.6262C16.7391 27.0204 16.5841 27.3985 16.3082 27.6772C16.0323 27.956 15.6581 28.1126 15.2679 28.1126ZM21.5031 17.3872C21.2866 17.3872 21.075 17.3224 20.8949 17.2009C20.7149 17.0794 20.5746 16.9067 20.4918 16.7046C20.4089 16.5025 20.3873 16.2802 20.4295 16.0657C20.4717 15.8512 20.576 15.6541 20.7291 15.4995C20.8822 15.3448 21.0772 15.2395 21.2895 15.1968C21.5019 15.1542 21.722 15.1761 21.922 15.2598C22.122 15.3435 22.293 15.4852 22.4132 15.6671C22.5335 15.8489 22.5977 16.0627 22.5977 16.2814C22.5969 16.5745 22.4814 16.8553 22.2762 17.0625C22.0711 17.2697 21.7932 17.3865 21.5031 17.3872V17.3872ZM27.347 25.1578C27.6379 25.1578 27.9224 25.2449 28.1644 25.4082C28.4063 25.5716 28.5949 25.8037 28.7062 26.0753C28.8176 26.3469 28.8467 26.6457 28.79 26.934C28.7332 27.2224 28.5931 27.4872 28.3873 27.6951C28.1815 27.9029 27.9194 28.0445 27.634 28.1018C27.3486 28.1592 27.0528 28.1298 26.7839 28.0173C26.5151 27.9048 26.2853 27.7143 26.1236 27.4698C25.962 27.2254 25.8757 26.938 25.8757 26.6441C25.8757 26.2499 26.0307 25.8718 26.3066 25.5931C26.5825 25.3143 26.9568 25.1578 27.347 25.1578Z" fill="#1976D2"/>
</g>
<defs>
<clipPath id="clip0">
<rect width="48.1075" height="30" fill="white"/>
</clipPath>
</defs>
</svg>
